<svg xmlns="http://www.w3.org/2000/svg" version="1.1" xmlns:xlink="http://www.w3.org/1999/xlink" xmlns:svgjs="http://svgjs.dev/svgjs" viewBox="0 0 11.480018388698978 1.7290079503653937"><g transform="matrix(1,0,0,1,0.3374775289771952,0.3620039751826968)"><rect width="11.480018388698978" height="11.480018388698978" x="-0.3374775289771952" y="-5.237509194349489" fill="#fcf7ee"></rect><g><path d=" M 0.09 1.005 L 0.09 0.9809999999999999 L 0.2115 0.9209999999999999 L 0.2115 0.09899999999999987 L 0.09 0.038999999999999924 L 0.09 0.014999999999999902 L 0.51 0.014999999999999902 Q 0.687 0.014999999999999902 0.79425 0.0794999999999999 Q 0.9015 0.1439999999999999 0.9015 0.28349999999999986 Q 0.9015 0.3659999999999999 0.8452500000000001 0.42974999999999985 Q 0.789 0.4934999999999998 0.6930000000000001 0.5302499999999999 Q 0.597 0.567 0.47400000000000003 0.567 L 0.369 0.567 L 0.369 0.9209999999999999 L 0.507 0.9809999999999999 L 0.507 1.005 L 0.09 1.005 M 0.369 0.09749999999999992 L 0.369 0.48749999999999993 L 0.483 0.48749999999999993 Q 0.6015 0.48749999999999993 0.669 0.4334999999999999 Q 0.7365 0.37949999999999984 0.7365 0.2954999999999999 Q 0.7365 0.1904999999999999 0.66825 0.1439999999999999 Q 0.6 0.09749999999999992 0.47250000000000003 0.09749999999999992 L 0.369 0.09749999999999992 M 1.069480224609375 1.005 L 1.069480224609375 0.9809999999999999 L 1.192480224609375 0.9209999999999999 L 1.192480224609375 0.09899999999999987 L 1.069480224609375 0.038999999999999924 L 1.069480224609375 0.014999999999999902 L 1.469980224609375 0.014999999999999902 L 1.469980224609375 0.038999999999999924 L 1.348480224609375 0.09899999999999987 L 1.348480224609375 0.9209999999999999 L 1.469980224609375 0.9809999999999999 L 1.469980224609375 1.005 L 1.069480224609375 1.005 M 1.615509521484375 1.005 L 1.615509521484375 0.9809999999999999 L 1.725009521484375 0.9254999999999999 L 2.044509521484375 0.5174999999999998 L 1.732509521484375 0.09299999999999986 L 1.636509521484375 0.038999999999999924 L 1.636509521484375 0.014999999999999902 L 2.040009521484375 0.014999999999999902 L 2.040009521484375 0.038999999999999924 L 1.920009521484375 0.09599999999999986 L 1.920009521484375 0.10349999999999993 L 2.152509521484375 0.41249999999999987 L 2.395509521484375 0.10199999999999987 L 2.395509521484375 0.09599999999999986 L 2.280009521484375 0.038999999999999924 L 2.280009521484375 0.014999999999999902 L 2.6040095214843753 0.014999999999999902 L 2.6040095214843753 0.038999999999999924 L 2.508009521484375 0.09299999999999986 L 2.203509521484375 0.47999999999999987 L 2.535009521484375 0.9224999999999999 L 2.641509521484375 0.9809999999999999 L 2.641509521484375 1.005 L 2.230509521484375 1.005 L 2.230509521484375 0.9809999999999999 L 2.340009521484375 0.9269999999999999 L 2.340009521484375 0.9209999999999999 L 2.094009521484375 0.585 L 1.837509521484375 0.9194999999999999 L 1.837509521484375 0.9254999999999999 L 1.957509521484375 0.9809999999999999 L 1.957509521484375 1.005 L 1.615509521484375 1.005 M 2.779544677734375 1.005 L 2.779544677734375 0.9809999999999999 L 2.901044677734375 0.9209999999999999 L 2.901044677734375 0.09899999999999987 L 2.779544677734375 0.038999999999999924 L 2.779544677734375 0.014999999999999902 L 3.532544677734375 0.014999999999999902 L 3.532544677734375 0.2729999999999999 L 3.508544677734375 0.2729999999999999 L 3.411044677734375 0.09749999999999992 L 3.0585446777343748 0.09749999999999992 L 3.0585446777343748 0.45299999999999985 L 3.307544677734375 0.45299999999999985 L 3.384044677734375 0.32699999999999985 L 3.408044677734375 0.32699999999999985 L 3.408044677734375 0.6584999999999999 L 3.384044677734375 0.6584999999999999 L 3.307544677734375 0.5354999999999999 L 3.0585446777343748 0.5354999999999999 L 3.0585446777343748 0.9224999999999999 L 3.451544677734375 0.9224999999999999 L 3.5505446777343748 0.7244999999999999 L 3.574544677734375 0.7244999999999999 L 3.574544677734375 1.005 L 2.779544677734375 1.005 M 3.76803955078125 1.005 L 3.76803955078125 0.9809999999999999 L 3.88953955078125 0.9209999999999999 L 3.88953955078125 0.09899999999999987 L 3.76803955078125 0.038999999999999924 L 3.76803955078125 0.014999999999999902 L 4.18353955078125 0.014999999999999902 L 4.18353955078125 0.038999999999999924 L 4.04703955078125 0.09899999999999987 L 4.04703955078125 0.9224999999999999 L 4.40253955078125 0.9224999999999999 L 4.50903955078125 0.6644999999999999 L 4.53303955078125 0.6644999999999999 L 4.53303955078125 1.005 L 3.76803955078125 1.005 M 5.23201904296875 1.0199999999999998 Q 5.07751904296875 1.0199999999999998 4.96501904296875 0.9569999999999999 Q 4.85251904296875 0.8939999999999999 4.79101904296875 0.7844999999999999 Q 4.72951904296875 0.6749999999999998 4.72951904296875 0.5354999999999999 Q 4.72951904296875 0.4274999999999999 4.77151904296875 0.3314999999999999 Q 4.81351904296875 0.23549999999999993 4.88626904296875 0.16049999999999986 Q 4.95901904296875 0.08549999999999991 5.05351904296875 0.042749999999999844 Q 5.14801904296875 -2.220446049250313e-16 5.2545190429687505 -2.220446049250313e-16 Q 5.33101904296875 -2.220446049250313e-16 5.38351904296875 0.009749999999999925 Q 5.43601904296875 0.01949999999999985 5.47726904296875 0.03524999999999989 Q 5.51851904296875 0.05099999999999982 5.56051904296875 0.07199999999999984 L 5.56951904296875 0.33899999999999986 L 5.54251904296875 0.33899999999999986 L 5.43901904296875 0.1439999999999999 Q 5.38801904296875 0.10799999999999987 5.34676904296875 0.09149999999999991 Q 5.30551904296875 0.07499999999999984 5.2545190429687505 0.07499999999999984 Q 5.15101904296875 0.07499999999999984 5.06851904296875 0.1289999999999999 Q 4.98601904296875 0.18299999999999983 4.93876904296875 0.2782499999999999 Q 4.89151904296875 0.37349999999999983 4.89151904296875 0.4979999999999999 Q 4.89151904296875 0.6375 4.93726904296875 0.73725 Q 4.98301904296875 0.8369999999999999 5.06101904296875 0.8894999999999998 Q 5.13901904296875 0.942 5.23351904296875 0.942 Q 5.31151904296875 0.942 5.36476904296875 0.9209999999999999 Q 5.41801904296875 0.8999999999999999 5.46001904296875 0.8714999999999999 L 5.56051904296875 0.7034999999999999 L 5.58601904296875 0.7034999999999999 L 5.56801904296875 0.9449999999999998 Q 5.50201904296875 0.9779999999999999 5.42701904296875 0.9989999999999999 Q 5.35201904296875 1.0199999999999998 5.23201904296875 1.0199999999999998 M 5.7315234375 1.005 L 5.7315234375 0.9809999999999999 L 5.8260234375 0.9314999999999999 L 6.2115234375 0.00749999999999984 L 6.2940234375 0.00749999999999984 L 6.6750234375 0.9269999999999999 L 6.7755234375 0.9809999999999999 L 6.7755234375 1.005 L 6.3795234375 1.005 L 6.3795234375 0.9809999999999999 L 6.5115234375 0.9284999999999999 L 6.4005234375 0.6584999999999999 L 6.0390234375 0.6584999999999999 L 5.9295234375 0.9299999999999999 L 6.0555234375 0.9809999999999999 L 6.0555234375 1.005 L 5.7315234375 1.005 M 6.0735234375000005 0.5759999999999998 L 6.3675234375 0.5759999999999998 L 6.2205234375 0.2144999999999999 L 6.0735234375000005 0.5759999999999998 M 6.91049560546875 1.005 L 6.91049560546875 0.9809999999999999 L 7.03199560546875 0.9209999999999999 L 7.03199560546875 0.09899999999999987 L 6.91049560546875 0.038999999999999924 L 6.91049560546875 0.014999999999999902 L 7.32749560546875 0.014999999999999902 Q 7.48499560546875 0.014999999999999902 7.57574560546875 0.08024999999999982 Q 7.66649560546875 0.14549999999999985 7.66649560546875 0.25949999999999984 Q 7.66649560546875 0.3434999999999999 7.60949560546875 0.4079999999999999 Q 7.55249560546875 0.4724999999999999 7.45949560546875 0.5069999999999999 L 7.74299560546875 0.9254999999999999 L 7.84349560546875 0.9809999999999999 L 7.84349560546875 1.005 L 7.60199560546875 1.005 L 7.31399560546875 0.5489999999999999 L 7.18949560546875 0.5489999999999999 L 7.18949560546875 0.9194999999999999 L 7.30199560546875 0.9809999999999999 L 7.30199560546875 1.005 L 6.91049560546875 1.005 M 7.27799560546875 0.09749999999999992 L 7.18949560546875 0.09749999999999992 L 7.18949560546875 0.4694999999999999 L 7.28699560546875 0.4694999999999999 Q 7.37999560546875 0.4694999999999999 7.44074560546875 0.4162499999999999 Q 7.50149560546875 0.3629999999999999 7.50149560546875 0.28049999999999986 Q 7.50149560546875 0.19499999999999984 7.4422456054687505 0.14624999999999988 Q 7.38299560546875 0.09749999999999992 7.27799560546875 0.09749999999999992 M 8.10148388671875 1.005 L 8.10148388671875 0.9809999999999999 L 8.25298388671875 0.9209999999999999 L 8.25298388671875 0.09749999999999992 L 8.01598388671875 0.09749999999999992 L 7.90948388671875 0.32399999999999984 L 7.88548388671875 0.32399999999999984 L 7.88548388671875 0.014999999999999902 L 8.77648388671875 0.014999999999999902 L 8.77648388671875 0.32399999999999984 L 8.75248388671875 0.32399999999999984 L 8.64748388671875 0.09749999999999992 L 8.40898388671875 0.09749999999999992 L 8.40898388671875 0.9209999999999999 L 8.56198388671875 0.9809999999999999 L 8.56198388671875 1.005 L 8.10148388671875 1.005" fill="#212121" fill-rule="nonzero"></path></g><g></g><g clip-path="url(#SvgjsClipPath1002)"><g clip-path="url(#SvgjsClipPath100013b3cd5f-636f-4443-bb6d-66d8a1033b8a)"><path d=" M 9.44839458418192 0.8879349304812166 L 9.436811910893946 0.864458540249197 L 9.42522923760597 0.8879349304812166 L 9.399323744536064 0.8916970775594079 L 9.418067827715005 0.9099671894529069 L 9.413639158516661 0.9357615955027883 L 9.436811910893946 0.9235864581080122 L 9.459977257469895 0.9357615955027883 L 9.455555994072887 0.9099671894529069 L 9.474300077251826 0.8916970775594079 L 9.44839458418192 0.8879349304812166 Z" fill="#769687" transform="matrix(1,0,0,1,0,0)" fill-rule="nonzero"></path></g><g clip-path="url(#SvgjsClipPath100013b3cd5f-636f-4443-bb6d-66d8a1033b8a)"><path d=" M 9.8095458920856 0.46218281753214047 L 9.79795581299629 0.485651801962825 L 9.772057725727718 0.48942135484235116 L 9.790801808906659 0.5076914667358503 L 9.786373139708315 0.5334858727857317 L 9.8095458920856 0.5213033295896207 L 9.832711238661549 0.5334858727857317 L 9.82828997526454 0.5076914667358503 L 9.847026652642146 0.48942135484235116 L 9.821128565373574 0.485651801962825 L 9.8095458920856 0.46218281753214047 Z" fill="#769687" transform="matrix(1,0,0,1,0,0)" fill-rule="nonzero"></path></g><g clip-path="url(#SvgjsClipPath100013b3cd5f-636f-4443-bb6d-66d8a1033b8a)"><path d=" M 9.382853242366975 0.5171042402326631 L 9.377972819287196 0.5598801487437499 L 9.349534542160711 0.5641088613060474 L 9.378469007976642 0.5715072568397344 L 9.384645446290051 0.6169640654340991 L 9.389888753635246 0.5708703579249225 L 9.416164536771904 0.5641088613060474 L 9.389385159144465 0.5601615691944808 L 9.382853242366975 0.5171042402326631 Z" fill="#769687" transform="matrix(1,0,0,1,0,0)" fill-rule="nonzero"></path></g><g clip-path="url(#SvgjsClipPath100013b3cd5f-636f-4443-bb6d-66d8a1033b8a)"><path d=" M 9.582098921484405 0.8201422250604253 L 9.580965833880146 0.8201422250604253 C 9.570965836726307 0.8202666617482844 9.562898671840156 0.8283601469113874 9.562806809006673 0.8383604963445792 C 9.562980711017671 0.8483300173593664 9.57101860191752 0.8563711823491942 9.580988051284152 0.8565491444233936 L 9.58212113888841 0.8565491444233936 C 9.592118414556605 0.8564369855209566 9.600194293653432 0.8483578168603421 9.600302381165891 0.8383604963445792 C 9.600143917153785 0.8283709420503165 9.592088343589621 0.8203088139104314 9.582098921484404 0.8201422250604253 Z" fill="#769687" transform="matrix(1,0,0,1,0,0)" fill-rule="nonzero"></path></g><g clip-path="url(#SvgjsClipPath100013b3cd5f-636f-4443-bb6d-66d8a1033b8a)"><path d=" M 9.461643562770274 0.821282718466019 C 9.466563159859168 0.8211422874601926 9.470478392983859 0.8171136983253751 9.470478392983859 0.8121920973272791 C 9.470478392983859 0.8072704963291837 9.466563159859168 0.8032419071943663 9.461643562770274 0.8031014761885403 C 9.456723965681379 0.8032419071943663 9.45280873255669 0.8072704963291837 9.45280873255669 0.8121920973272791 C 9.45280873255669 0.8171136983253751 9.456723965681379 0.8211422874601926 9.461643562770274 0.8212827184660184 Z" fill="#769687" transform="matrix(1,0,0,1,0,0)" fill-rule="nonzero"></path></g><g clip-path="url(#SvgjsClipPath100013b3cd5f-636f-4443-bb6d-66d8a1033b8a)"><path d=" M 9.541189274909746 0.7530975055744719 C 9.53626967782085 0.7532379365802989 9.53235444469616 0.7572665257151158 9.53235444469616 0.7621881267132118 C 9.53235444469616 0.7671097277113077 9.53626967782085 0.7711383168461245 9.541189274909746 0.7712787478519505 C 9.546108871998639 0.7711383168461245 9.55002410512333 0.7671097277113077 9.55002410512333 0.7621881267132118 C 9.55002410512333 0.7572665257151158 9.546108871998639 0.7532379365802989 9.541189274909746 0.7530975055744724 Z" fill="#769687" transform="matrix(1,0,0,1,0,0)" fill-rule="nonzero"></path></g><g clip-path="url(#SvgjsClipPath100013b3cd5f-636f-4443-bb6d-66d8a1033b8a)"><path d=" M 9.49232579770127 0.7133283524054039 L 9.490052216691417 0.7133283524054039 C 9.487614248913939 0.713426800915227 9.485688525833163 0.715431856813157 9.485688525833163 0.71787181152444 C 9.485688525833163 0.7203117662357231 9.487614248913939 0.7223168221336531 9.490052216691417 0.7224152706434757 L 9.49232579770127 0.7224152706434757 C 9.494763765478748 0.7223168221336531 9.496689488559523 0.7203117662357231 9.496689488559523 0.71787181152444 C 9.496689488559523 0.715431856813157 9.494763765478748 0.713426800915227 9.49232579770127 0.7133283524054039 Z" fill="#769687" transform="matrix(1,0,0,1,0,0)" fill-rule="nonzero"></path></g><g clip-path="url(#SvgjsClipPath100013b3cd5f-636f-4443-bb6d-66d8a1033b8a)"><path d=" M 9.927557336359174 0.6008268243250862 C 9.925119368581695 0.6009252728349088 9.92319364550092 0.6029303287328394 9.92319364550092 0.6053702834441218 C 9.92319364550092 0.6078102381554049 9.925119368581695 0.6098152940533349 9.927557336359174 0.609913742563158 C 9.929995304136652 0.6098152940533349 9.931921027217427 0.6078102381554049 9.931921027217427 0.6053702834441218 C 9.931921027217427 0.6029303287328394 9.929995304136652 0.6009252728349088 9.927557336359174 0.6008268243250862 Z" fill="#769687" transform="matrix(1,0,0,1,0,0)" fill-rule="nonzero"></path></g><g clip-path="url(#SvgjsClipPath100013b3cd5f-636f-4443-bb6d-66d8a1033b8a)"><path d=" M 10.054833438102861 0.5780984200279038 L 10.053700350498602 0.5780984200279038 C 10.048702289306151 0.5781504646523041 10.04466214280593 0.5821873211309466 10.044606026459196 0.5871853382659756 C 10.044689206640964 0.5921731341178248 10.048712554646754 0.5961964821236144 10.053700350498604 0.596279662305382 L 10.054833438102861 0.596279662305382 C 10.059831050246476 0.5962197084940265 10.063867808330912 0.5921829504095913 10.063927762142267 0.5871853382659756 C 10.063840636193834 0.582200434617371 10.05981841107564 0.5781814849267957 10.054833438102861 0.5780984200279038 Z" fill="#769687" transform="matrix(1,0,0,1,0,0)" fill-rule="nonzero"></path></g><g clip-path="url(#SvgjsClipPath100013b3cd5f-636f-4443-bb6d-66d8a1033b8a)"><path d=" M 10.0139237915282 0.6246883162265265 C 10.010246274952316 0.624809543883061 10.007327769117103 0.6278258422148502 10.007327769117103 0.6315053563554143 C 10.007327769117103 0.6351848704959789 10.010246274952316 0.6382011688277677 10.0139237915282 0.638322396484302 C 10.017601308104084 0.6382011688277677 10.020519813939297 0.6351848704959789 10.020519813939297 0.6315053563554143 C 10.020519813939297 0.6278258422148502 10.017601308104084 0.624809543883061 10.0139237915282 0.6246883162265265 Z" fill="#769687" transform="matrix(1,0,0,1,0,0)" fill-rule="nonzero"></path></g><g clip-path="url(#SvgjsClipPath100013b3cd5f-636f-4443-bb6d-66d8a1033b8a)"><path d=" M 9.975309943367396 0.8667395270603837 C 9.97163242679151 0.8668607547169181 9.968713920956299 0.8698770530487069 9.968713920956299 0.8735565671892715 C 9.968713920956299 0.8772360813298361 9.97163242679151 0.8802523796616248 9.975309943367396 0.8803736073181593 C 9.97898745994328 0.8802523796616248 9.981905965778493 0.8772360813298361 9.981905965778493 0.8735565671892715 C 9.981905965778493 0.8698770530487069 9.97898745994328 0.8668607547169181 9.975309943367396 0.8667395270603837 Z" fill="#769687" transform="matrix(1,0,0,1,0,0)" fill-rule="nonzero"></path></g><g clip-path="url(#SvgjsClipPath100013b3cd5f-636f-4443-bb6d-66d8a1033b8a)"><path d=" M 10.023018115567607 0.9178765852787102 C 10.021814801388171 0.91794534606609 10.020874241835132 0.9189411862163239 10.020874241835132 0.9201464633878942 C 10.020874241835132 0.9213517405594646 10.021814801388171 0.9223475807096979 10.023018115567607 0.9224163414970787 C 10.024221429747042 0.9223475807096979 10.025161989300083 0.9213517405594646 10.025161989300083 0.9201464633878942 C 10.025161989300083 0.9189411862163239 10.024221429747042 0.91794534606609 10.023018115567607 0.9178765852787096 Z" fill="#769687" transform="matrix(1,0,0,1,0,0)" fill-rule="nonzero"></path></g><g clip-path="url(#SvgjsClipPath100013b3cd5f-636f-4443-bb6d-66d8a1033b8a)"><path d=" M 10.067334430756377 0.8610518716350869 C 10.061171135871472 0.8612092209569123 10.056256654531808 0.8662507706567135 10.056256654531808 0.8724160737836784 C 10.056256654531808 0.8785813769106433 10.061171135871472 0.883622926610444 10.067334430756377 0.8837802759322694 C 10.073497725641282 0.883622926610444 10.078412206980948 0.8785813769106433 10.078412206980948 0.8724160737836784 C 10.078412206980948 0.8662507706567135 10.073497725641282 0.8612092209569123 10.067334430756377 0.8610518716350869 Z" fill="#769687" transform="matrix(1,0,0,1,0,0)" fill-rule="nonzero"></path></g><g clip-path="url(#SvgjsClipPath100013b3cd5f-636f-4443-bb6d-66d8a1033b8a)"><path d=" M 10.008243541904239 0.9440116581900027 C 10.004566025328355 0.9441328858465371 10.001647519493142 0.9471491841783257 10.001647519493142 0.9508286983188904 C 10.001647519493142 0.9545082124594545 10.004566025328355 0.9575245107912438 10.008243541904239 0.9576457384477781 C 10.011921058480123 0.9575245107912438 10.014839564315334 0.9545082124594545 10.014839564315334 0.9508286983188904 C 10.014839564315334 0.9471491841783257 10.011921058480123 0.9441328858465371 10.008243541904239 0.9440116581900027 Z" fill="#769687" transform="matrix(1,0,0,1,0,0)" fill-rule="nonzero"></path></g><g clip-path="url(#SvgjsClipPath100013b3cd5f-636f-4443-bb6d-66d8a1033b8a)"><path d=" M 9.896875101428178 0.3792008135732192 C 9.893197584852294 0.3793220412297536 9.890279079017082 0.38233833956154284 9.890279079017082 0.38601785370210695 C 9.890279079017082 0.38969736784267156 9.893197584852294 0.3927136661744603 9.896875101428178 0.3928348938309947 C 9.900552618004063 0.3927136661744603 9.903471123839276 0.38969736784267156 9.903471123839276 0.38601785370210695 C 9.903471123839276 0.38233833956154284 9.900552618004063 0.3793220412297536 9.896875101428178 0.3792008135732192 Z" fill="#769687" transform="matrix(1,0,0,1,0,0)" fill-rule="nonzero"></path></g><g clip-path="url(#SvgjsClipPath100013b3cd5f-636f-4443-bb6d-66d8a1033b8a)"><path d=" M 9.903695844457733 0.4496818248786228 C 9.901184516219242 0.4496818248786228 9.899148682438028 0.45171765865983404 9.899148682438028 0.4542289868983265 C 9.899148682438028 0.4567403151368185 9.901184516219242 0.4587761489180297 9.903695844457733 0.45877614891803026 C 9.906207172696226 0.45877614891803026 9.908243006477436 0.4567403151368185 9.908243006477436 0.4542289868983265 C 9.908243006477436 0.45171765865983404 9.906207172696226 0.4496818248786228 9.903695844457733 0.4496818248786228 Z" fill="#769687" transform="matrix(1,0,0,1,0,0)" fill-rule="nonzero"></path></g><g clip-path="url(#SvgjsClipPath100013b3cd5f-636f-4443-bb6d-66d8a1033b8a)"><path d=" M 9.692326868554872 0.5246877807997258 C 9.671857233664872 0.5246877807997258 9.671820204658196 0.5565327265403199 9.692326868554872 0.5565327265403199 C 9.712833532451548 0.5565327265403199 9.712833532451548 0.5246877807997258 9.692326868554872 0.5246877807997258 Z" fill="#769687" transform="matrix(1,0,0,1,0,0)" fill-rule="nonzero"></path></g><g clip-path="url(#SvgjsClipPath100013b3cd5f-636f-4443-bb6d-66d8a1033b8a)"><path d=" M 9.760541704651759 0.6269618972363786 C 9.765461301740654 0.6268214662305522 9.769376534865344 0.6227928770957353 9.769376534865344 0.6178712760976394 C 9.769376534865344 0.6129496750995433 9.765461301740654 0.6089210859647265 9.760541704651759 0.6087806549589 C 9.755622107562864 0.6089210859647265 9.751706874438176 0.6129496750995433 9.751706874438176 0.6178712760976394 C 9.751706874438176 0.6227928770957353 9.755622107562864 0.6268214662305522 9.760541704651759 0.6269618972363786 Z" fill="#769687" transform="matrix(1,0,0,1,0,0)" fill-rule="nonzero"></path></g><g clip-path="url(#SvgjsClipPath100013b3cd5f-636f-4443-bb6d-66d8a1033b8a)"><path d=" M 9.769606405485826 0.6519638825434126 C 9.767168437708346 0.6520623310532352 9.765242714627572 0.6540673869511652 9.765242714627572 0.6565073416624483 C 9.765242714627572 0.6589472963737313 9.767168437708346 0.6609523522716613 9.769606405485826 0.6610508007814844 C 9.772044373263306 0.6609523522716613 9.773970096344081 0.6589472963737313 9.773970096344081 0.6565073416624483 C 9.773970096344081 0.6540673869511652 9.772044373263306 0.6520623310532352 9.769606405485826 0.6519638825434126 Z" fill="#769687" transform="matrix(1,0,0,1,0,0)" fill-rule="nonzero"></path></g><g clip-path="url(#SvgjsClipPath100013b3cd5f-636f-4443-bb6d-66d8a1033b8a)"><path d=" M 9.715055272852053 0.7724488644628842 C 9.712617305074575 0.7725473129727073 9.7106915819938 0.7745523688706373 9.7106915819938 0.7769923235819204 C 9.7106915819938 0.7794322782932034 9.712617305074575 0.7814373341911334 9.715055272852053 0.7815357827009559 C 9.717493240629533 0.7814373341911334 9.719418963710309 0.7794322782932034 9.719418963710309 0.7769923235819204 C 9.719418963710309 0.7745523688706373 9.717493240629533 0.7725473129727073 9.715055272852053 0.7724488644628842 Z" fill="#769687" transform="matrix(1,0,0,1,0,0)" fill-rule="nonzero"></path></g><g clip-path="url(#SvgjsClipPath100013b3cd5f-636f-4443-bb6d-66d8a1033b8a)"><path d=" M 9.760541704651759 0.7178681086237725 C 9.755622107562864 0.718008539629599 9.751706874438176 0.7220371287644158 9.751706874438176 0.7269587297625119 C 9.751706874438176 0.7318803307606078 9.755622107562864 0.7359089198954247 9.760541704651759 0.7360493509012511 C 9.765461301740654 0.7359089198954247 9.769376534865344 0.7318803307606078 9.769376534865344 0.7269587297625119 C 9.769376534865344 0.7220371287644158 9.765461301740654 0.718008539629599 9.760541704651759 0.7178681086237725 Z" fill="#769687" transform="matrix(1,0,0,1,0,0)" fill-rule="nonzero"></path></g><g clip-path="url(#SvgjsClipPath100013b3cd5f-636f-4443-bb6d-66d8a1033b8a)"><path d=" M 9.692326868554872 0.6474167205237089 C 9.684971835403104 0.6476591758367771 9.679134823732678 0.6536917725003557 9.679134823732678 0.6610508007814844 C 9.679134823732678 0.6684098290626137 9.684971835403104 0.6744424257261916 9.692326868554872 0.6746848810392598 C 9.699681901706642 0.6744424257261916 9.705518913377066 0.6684098290626137 9.705518913377066 0.6610508007814844 C 9.705518913377066 0.6536917725003557 9.699681901706642 0.6476591758367771 9.692326868554872 0.6474167205237089 Z" fill="#769687" transform="matrix(1,0,0,1,0,0)" fill-rule="nonzero"></path></g><g clip-path="url(#SvgjsClipPath100013b3cd5f-636f-4443-bb6d-66d8a1033b8a)"><path d=" M 9.585512995899851 0.6224147352166749 C 9.589190512475735 0.6222935075601406 9.592109018310948 0.6192772092283513 9.592109018310948 0.6155976950877872 C 9.592109018310948 0.6119181809472226 9.589190512475735 0.6089018826154339 9.585512995899851 0.6087806549588994 C 9.581835479323967 0.6089018826154339 9.578916973488754 0.6119181809472226 9.578916973488754 0.6155976950877872 C 9.578916973488754 0.6192772092283513 9.581835479323967 0.6222935075601406 9.585512995899851 0.6224147352166749 Z" fill="#769687" transform="matrix(1,0,0,1,0,0)" fill-rule="nonzero"></path></g><g clip-path="url(#SvgjsClipPath100013b3cd5f-636f-4443-bb6d-66d8a1033b8a)"><path d=" M 9.61571385374407 0.5689966901871618 C 9.613537814376361 0.5677077892429413 9.610832164439502 0.5677077892429413 9.608656125071795 0.5689966901871618 C 9.607780704501387 0.5695138109316318 9.60704374991153 0.5702355181851474 9.606508442684639 0.5710999377663077 C 9.60476386800696 0.5730789806497624 9.604150016874085 0.5758115466137442 9.604880532423111 0.5783466005723762 C 9.605611047972138 0.580881654531007 9.607584882543895 0.5828685382830634 9.610115067934794 0.5836157420224957 C 9.612759644083487 0.584287093853687 9.615562334986105 0.5835162671149037 9.617491647854393 0.5815869542466154 C 9.619420960722682 0.5796576413783272 9.620191787461463 0.5768549504757114 9.619520435630273 0.5742103743270176 C 9.618994584714832 0.5720357950348488 9.617624953739652 0.5701598802361577 9.61571385374407 0.5689966901871613 Z" fill="#769687" transform="matrix(1,0,0,1,0,0)" fill-rule="nonzero"></path></g><g clip-path="url(#SvgjsClipPath100013b3cd5f-636f-4443-bb6d-66d8a1033b8a)"><path d=" M 9.628125976781568 0.6486534893466578 L 9.62755573007877 0.6486534893466578 C 9.626397142114218 0.6486989759992149 9.625468345946842 0.6496277721665924 9.625422859294284 0.6507863601311438 L 9.625422859294284 0.6513566068339407 C 9.625444353817988 0.6524531334515157 9.626112509201317 0.6534330886356444 9.627125403698017 0.6538536565566204 C 9.628138298194719 0.6542742244775953 9.629304063041602 0.6540557385491178 9.630095919936684 0.6532969267837162 C 9.630831305199026 0.6524969963483184 9.631031028672997 0.6513409593964496 9.630606660691237 0.6503406634394424 C 9.630182292709476 0.6493403674824357 9.629212229514314 0.6486806036629252 9.628125976781568 0.6486534893466572 Z" fill="#769687" transform="matrix(1,0,0,1,0,0)" fill-rule="nonzero"></path></g><g clip-path="url(#SvgjsClipPath100013b3cd5f-636f-4443-bb6d-66d8a1033b8a)"><path d=" M 10.58986555555152 0.9347692181238952 L 10.613038307928804 0.9225940807291192 L 10.636203654504753 0.9347692181238952 L 10.63177498530641 0.9089748120740139 L 10.65051906848535 0.8907047001805148 L 10.62462098121678 0.8869425531023237 L 10.613038307928804 0.8634661628703041 L 10.601448228839494 0.8869425531023237 L 10.575550141570924 0.8907047001805148 L 10.594294224749865 0.9089748120740139 L 10.58986555555152 0.9347692181238952 Z" fill="#769687" transform="matrix(1,0,0,1,0,0)" fill-rule="nonzero"></path></g><g clip-path="url(#SvgjsClipPath100013b3cd5f-636f-4443-bb6d-66d8a1033b8a)"><path d=" M 10.217131574359867 0.5324934954068388 L 10.24030432673715 0.5203109522107277 L 10.263469673313098 0.5324934954068388 L 10.25904840991609 0.5066990893569574 L 10.277792493095031 0.48842897746345826 L 10.251887000025125 0.4846594245839321 L 10.24030432673715 0.46119044015324756 L 10.228721653449176 0.4846594245839321 L 10.20281616037927 0.48842897746345826 L 10.22156024355821 0.5066990893569574 L 10.217131574359867 0.5324934954068388 Z" fill="#769687" transform="matrix(1,0,0,1,0,0)" fill-rule="nonzero"></path></g><g clip-path="url(#SvgjsClipPath100013b3cd5f-636f-4443-bb6d-66d8a1033b8a)"><path d=" M 10.467743891537008 0.8555197380378254 L 10.468876979141267 0.8555197380378254 C 10.47884932058275 0.8553457163681708 10.486891605550428 0.847303431400494 10.487065627220082 0.8373310899590111 C 10.486949550748662 0.8273354637295081 10.478872651813905 0.8192618534343831 10.46887697914127 0.819149847681533 L 10.467743891537008 0.819149847681533 C 10.457777262364948 0.8193276890188113 10.449740490596808 0.827364460786951 10.44956264925953 0.8373310899590116 C 10.44967465501238 0.8473267626316476 10.457748265307504 0.8554036615664042 10.467743891537008 0.8555197380378254 Z" fill="#769687" transform="matrix(1,0,0,1,0,0)" fill-rule="nonzero"></path></g><g clip-path="url(#SvgjsClipPath100013b3cd5f-636f-4443-bb6d-66d8a1033b8a)"><path d=" M 10.58819925025114 0.8202903410871261 C 10.593118847340035 0.820149910081299 10.597034080464725 0.8161213209464822 10.597034080464725 0.8111997199483861 C 10.597034080464725 0.8062781189502902 10.593118847340035 0.8022495298154734 10.58819925025114 0.8021090988096474 C 10.583279653162245 0.8022495298154734 10.579364420037557 0.8062781189502902 10.579364420037557 0.8111997199483861 C 10.579364420037557 0.8161213209464822 10.583279653162245 0.820149910081299 10.58819925025114 0.8202903410871255 Z" fill="#769687" transform="matrix(1,0,0,1,0,0)" fill-rule="nonzero"></path></g><g clip-path="url(#SvgjsClipPath100013b3cd5f-636f-4443-bb6d-66d8a1033b8a)"><path d=" M 10.50865353811167 0.7702863704730581 C 10.513573135200566 0.7701459394672316 10.517488368325255 0.7661173503324148 10.517488368325255 0.7611957493343188 C 10.517488368325255 0.7562741483362229 10.513573135200566 0.7522455592014059 10.50865353811167 0.7521051281955795 C 10.503733941022775 0.7522455592014059 10.499818707898086 0.7562741483362229 10.499818707898086 0.7611957493343188 C 10.499818707898086 0.7661173503324148 10.503733941022775 0.7701459394672316 10.50865353811167 0.7702863704730576 Z" fill="#769687" transform="matrix(1,0,0,1,0,0)" fill-rule="nonzero"></path></g><g clip-path="url(#SvgjsClipPath100013b3cd5f-636f-4443-bb6d-66d8a1033b8a)"><path d=" M 10.557517015320144 0.7214228932645833 L 10.559790596329997 0.7214228932645833 C 10.562228564107476 0.7213244447547608 10.564154287188252 0.7193193888568302 10.564154287188252 0.7168794341455477 C 10.564154287188252 0.7144394794342647 10.562228564107476 0.7124344235363347 10.559790596329997 0.7123359750265116 L 10.557517015320144 0.7123359750265116 C 10.555079047542666 0.7124344235363347 10.55315332446189 0.7144394794342647 10.55315332446189 0.7168794341455477 C 10.55315332446189 0.7193193888568302 10.555079047542666 0.7213244447547608 10.557517015320144 0.7214228932645833 Z" fill="#769687" transform="matrix(1,0,0,1,0,0)" fill-rule="nonzero"></path></g><g clip-path="url(#SvgjsClipPath100013b3cd5f-636f-4443-bb6d-66d8a1033b8a)"><path d=" M 10.152967711593236 0.3918721396574418 C 10.15664522816912 0.39175091200090795 10.159563734004333 0.38873461366911866 10.159563734004333 0.38505509952855405 C 10.159563734004333 0.38137558538798993 10.15664522816912 0.3783592870562007 10.152967711593236 0.3782380593996663 C 10.149290195017352 0.3783592870562007 10.14637168918214 0.38137558538798993 10.14637168918214 0.38505509952855405 C 10.14637168918214 0.38873461366911866 10.149290195017352 0.39175091200090795 10.152967711593236 0.3918721396574418 Z" fill="#769687" transform="matrix(1,0,0,1,0,0)" fill-rule="nonzero"></path></g><g clip-path="url(#SvgjsClipPath100013b3cd5f-636f-4443-bb6d-66d8a1033b8a)"><path d=" M 10.14614696856368 0.45778377153913735 C 10.14858493634116 0.45768532302931475 10.150510659421936 0.45568026713138476 10.150510659421936 0.4532403124201017 C 10.150510659421936 0.45080035770881866 10.14858493634116 0.44879530181088867 10.14614696856368 0.44869685330106557 C 10.143709000786203 0.44879530181088867 10.141783277705427 0.45080035770881866 10.141783277705427 0.4532403124201017 C 10.141783277705427 0.45568026713138476 10.143709000786203 0.45768532302931475 10.14614696856368 0.45778377153913735 Z" fill="#769687" transform="matrix(1,0,0,1,0,0)" fill-rule="nonzero"></path></g><g clip-path="url(#SvgjsClipPath100013b3cd5f-636f-4443-bb6d-66d8a1033b8a)"><path d=" M 10.357515944466542 0.5555107259560864 C 10.378022608363217 0.5555107259560864 10.377985579356544 0.5236657802154923 10.357515944466542 0.5236657802154923 C 10.337046309576541 0.5236657802154923 10.337038903775207 0.5555107259560864 10.357515944466542 0.5555107259560864 Z" fill="#769687" transform="matrix(1,0,0,1,0,0)" fill-rule="nonzero"></path></g><g clip-path="url(#SvgjsClipPath100013b3cd5f-636f-4443-bb6d-66d8a1033b8a)"><path d=" M 10.289315919972326 0.6259695198574857 C 10.294235517061221 0.6258290888516592 10.298150750185911 0.6218004997168424 10.298150750185911 0.6168788987187465 C 10.298150750185911 0.6119572977206504 10.294235517061221 0.6079287085858336 10.289315919972326 0.6077882775800071 C 10.284396322883431 0.6079287085858336 10.28048108975874 0.6119572977206504 10.28048108975874 0.6168788987187465 C 10.28048108975874 0.6218004997168424 10.284396322883431 0.6258290888516592 10.289315919972326 0.6259695198574857 Z" fill="#769687" transform="matrix(1,0,0,1,0,0)" fill-rule="nonzero"></path></g><g clip-path="url(#SvgjsClipPath100013b3cd5f-636f-4443-bb6d-66d8a1033b8a)"><path d=" M 10.280243813336924 0.6600584234025915 C 10.282681781114404 0.6599599748927689 10.284607504195177 0.6579549189948384 10.284607504195177 0.6555149642835558 C 10.284607504195177 0.6530750095722728 10.282681781114404 0.6510699536743428 10.280243813336924 0.6509715051645197 C 10.277805845559445 0.6510699536743428 10.275880122478668 0.6530750095722728 10.275880122478668 0.6555149642835558 C 10.275880122478668 0.6579549189948384 10.277805845559445 0.6599599748927689 10.280243813336924 0.6600584234025915 Z" fill="#769687" transform="matrix(1,0,0,1,0,0)" fill-rule="nonzero"></path></g><g clip-path="url(#SvgjsClipPath100013b3cd5f-636f-4443-bb6d-66d8a1033b8a)"><path d=" M 10.33478754016936 0.780513782116723 C 10.337225507946838 0.7804153336069004 10.339151231027614 0.7784102777089704 10.339151231027614 0.7759703229976874 C 10.339151231027614 0.7735303682864043 10.337225507946838 0.7715253123884743 10.33478754016936 0.7714268638786512 C 10.332349572391882 0.7715253123884743 10.330423849311106 0.7735303682864043 10.330423849311106 0.7759703229976874 C 10.330423849311106 0.7784102777089704 10.332349572391882 0.7804153336069004 10.33478754016936 0.780513782116723 Z" fill="#769687" transform="matrix(1,0,0,1,0,0)" fill-rule="nonzero"></path></g><g clip-path="url(#SvgjsClipPath100013b3cd5f-636f-4443-bb6d-66d8a1033b8a)"><path d=" M 10.289315919972326 0.7169053544502196 C 10.284396322883431 0.717045785456046 10.28048108975874 0.721074374590863 10.28048108975874 0.7259959755889589 C 10.28048108975874 0.7309175765870549 10.284396322883431 0.7349461657218718 10.289315919972326 0.7350865967276983 C 10.294235517061221 0.7349461657218718 10.298150750185911 0.7309175765870549 10.298150750185911 0.7259959755889589 C 10.298150750185911 0.721074374590863 10.294235517061221 0.717045785456046 10.289315919972326 0.7169053544502196 Z" fill="#769687" transform="matrix(1,0,0,1,0,0)" fill-rule="nonzero"></path></g><g clip-path="url(#SvgjsClipPath100013b3cd5f-636f-4443-bb6d-66d8a1033b8a)"><path d=" M 10.357515944466542 0.646424343144816 C 10.350160911314772 0.6466667984578842 10.344323899644348 0.6526993951214627 10.344323899644348 0.6600584234025915 C 10.344323899644348 0.6674174516837201 10.350160911314772 0.6734500483472987 10.357515944466542 0.6736925036603669 C 10.364870977618313 0.6734500483472987 10.370707989288736 0.6674174516837201 10.370707989288736 0.6600584234025915 C 10.370707989288736 0.6526993951214627 10.364870977618313 0.6466667984578842 10.357515944466542 0.646424343144816 Z" fill="#769687" transform="matrix(1,0,0,1,0,0)" fill-rule="nonzero"></path></g><g clip-path="url(#SvgjsClipPath100013b3cd5f-636f-4443-bb6d-66d8a1033b8a)"><path d=" M 10.464337222922898 0.621422357837782 C 10.468014739498784 0.6213011301812482 10.470933245333995 0.6182848318494589 10.470933245333995 0.6146053177088943 C 10.470933245333995 0.6109258035683302 10.468014739498784 0.607909505236541 10.464337222922898 0.6077882775800065 C 10.460659706347014 0.607909505236541 10.457741200511801 0.6109258035683302 10.457741200511801 0.6146053177088943 C 10.457741200511801 0.6182848318494589 10.460659706347014 0.6213011301812482 10.464337222922898 0.621422357837782 Z" fill="#769687" transform="matrix(1,0,0,1,0,0)" fill-rule="nonzero"></path></g><g clip-path="url(#SvgjsClipPath100013b3cd5f-636f-4443-bb6d-66d8a1033b8a)"><path d=" M 10.439727745086621 0.5826233646436021 C 10.44225793047752 0.5818761609041705 10.444231765049276 0.579889277152114 10.444962280598302 0.5773542231934833 C 10.445692796147329 0.5748191692348513 10.445078945014453 0.5720866032708694 10.443334370336776 0.5701075603874154 C 10.44280117424206 0.5692414527379551 10.44206375208913 0.568519287595087 10.44118668794962 0.5680043128082688 C 10.439009339634035 0.5667201990884574 10.436306307592929 0.5667201990884574 10.434128959277345 0.5680043128082688 C 10.4322241511432 0.5691605955641492 10.43085532608778 0.5710247541999361 10.430322377391143 0.5731883737427841 C 10.429638020702665 0.5758371832588409 10.430403001767356 0.578650497214298 10.432334451962301 0.5805880307169425 C 10.434265902157245 0.5825255642195866 10.437076796607633 0.5832993883792587 10.439727745086621 0.5826233646436021 Z" fill="#769687" transform="matrix(1,0,0,1,0,0)" fill-rule="nonzero"></path></g><g clip-path="url(#SvgjsClipPath100013b3cd5f-636f-4443-bb6d-66d8a1033b8a)"><path d=" M 10.424464388535142 0.6504012584617229 L 10.424419953727131 0.6498310117589261 C 10.424374467074573 0.6486724237943741 10.423445670907197 0.6477436276269971 10.422287082942645 0.6476981409744395 L 10.421724242041183 0.6476981409744395 C 10.420627886931092 0.6477235520677946 10.419649765708085 0.6483934230692886 10.419229799174754 0.649406472111522 C 10.418809832641422 0.6504195211537561 10.419027115383084 0.651584955191236 10.419783922091408 0.6523786074181742 C 10.420582481727358 0.6531396338099199 10.421756500662369 0.6533542473896736 10.422772653538512 0.6529249549562391 C 10.423788806414656 0.6524956625228047 10.424453345519026 0.6515043163536283 10.424464388535142 0.6504012584617229 Z" fill="#769687" transform="matrix(1,0,0,1,0,0)" fill-rule="nonzero"></path></g><g clip-path="url(#SvgjsClipPath100013b3cd5f-636f-4443-bb6d-66d8a1033b8a)"><path d=" M 10.005969960894387 0.4261313766332536 C 10.003421821970775 0.42613137707888565 10.001356147469568 0.42819705194133645 10.001356147469556 0.4307451908649481 C 10.001356147469542 0.43329332978856033 10.003421821970727 0.4353590046510328 10.005969960894339 0.43535900509669095 C 10.008518099817998 0.4353590046510589 10.010583774319205 0.43329332978860813 10.010583774319217 0.43074519086499646 C 10.01058377431923 0.42819705194138424 10.008518099818046 0.4261313770789118 10.005969960894435 0.4261313766332536 Z" fill="#769687" transform="matrix(1,0,0,1,0,0)" fill-rule="nonzero"></path></g><g clip-path="url(#SvgjsClipPath100013b3cd5f-636f-4443-bb6d-66d8a1033b8a)"><path d=" M 10.046612998620986 0.3346771359470679 C 10.04736464001194 0.3372041918673974 10.04885233499832 0.33944991514839895 10.050886145991294 0.3411275889098709 C 10.053965367547082 0.34412462584796577 10.058871191630029 0.34412462584796577 10.061950413185818 0.341127588909872 C 10.064920409888886 0.3380374301187549 10.064920409888886 0.3331534805064655 10.061950413185818 0.33006332171534786 C 10.060269433219363 0.32803136262494254 10.05802118921326 0.3265462840154083 10.055492554421678 0.32579758014637633 C 10.052994043654524 0.3251515390829906 10.05034018299261 0.3258751275198403 10.04851536449353 0.32769994601891944 C 10.046690545994451 0.3295247645179991 10.045966957557601 0.3321786251799136 10.046612998620986 0.3346771359470679 Z" fill="#769687" transform="matrix(1,0,0,1,0,0)" fill-rule="nonzero"></path></g><g clip-path="url(#SvgjsClipPath100013b3cd5f-636f-4443-bb6d-66d8a1033b8a)"><path d=" M 9.995638868032032 0.24737754980982923 C 9.99554552378374 0.2479857894712933 9.99561977566308 0.24860796901196597 9.995853636270747 0.24917715953424086 C 9.995992959223328 0.24962666940525602 9.996408733753501 0.24993308993830632 9.996879339755647 0.24993308993830632 C 9.997349945757794 0.24993308993830632 9.997765720287967 0.24962666940525602 9.997905043240548 0.24917715953423974 C 9.998138903848215 0.24860796901196597 9.998213155727553 0.2479857894712933 9.998119811479263 0.24737754980983034 C 9.99806970518491 0.24672954857669444 9.99752927532082 0.2462292938939385 9.996879339755647 0.2462292938939385 C 9.996229404190474 0.2462292938939385 9.995688974326384 0.24672954857669444 9.995638868032032 0.24737754980982923 Z" fill="#769687" transform="matrix(1,0,0,1,0,0)" fill-rule="nonzero"></path></g><g clip-path="url(#SvgjsClipPath100013b3cd5f-636f-4443-bb6d-66d8a1033b8a)"><path d=" M 10.05461126406281 0.23948296558669546 L 10.055063017944246 0.2389275304865684 C 10.056687145100703 0.2368641512468948 10.056511951794505 0.2339122698036612 10.054655163854667 0.23205548186382297 C 10.052798375914827 0.23019869392398584 10.049846494471595 0.23002350061778581 10.04778311523192 0.2316476277742423 L 10.04723508593313 0.23210678745701419 C 10.042043619197278 0.23641696383399657 10.050293681884492 0.2446670265212112 10.05461126406281 0.23948296558669546 Z" fill="#769687" transform="matrix(1,0,0,1,0,0)" fill-rule="nonzero"></path></g><g clip-path="url(#SvgjsClipPath100013b3cd5f-636f-4443-bb6d-66d8a1033b8a)"><path d=" M 9.528525354626858 0.4474156496701064 C 9.528426445115446 0.4416900630452884 9.523808761369292 0.43707237929913456 9.518083174744476 0.43697346978772506 C 9.512342859461212 0.4370375238948533 9.507705048969223 0.4416753343868409 9.507640994862097 0.44741564967010583 C 9.507743845424772 0.45313834413335435 9.512360408751958 0.4577516333021534 9.518083174744476 0.45785042375115254 C 9.52382229204093 0.4577903669580059 9.528461226109505 0.4531547229135943 9.528525354626858 0.4474156496701064 Z" fill="#769687" transform="matrix(1,0,0,1,0,0)" fill-rule="nonzero"></path></g><g clip-path="url(#SvgjsClipPath100013b3cd5f-636f-4443-bb6d-66d8a1033b8a)"><path d=" M 9.50791500951149 0.48193408969264395 C 9.507307733802019 0.4822599449513848 9.506693052291212 0.4825783944087906 9.506078370780406 0.4828968438661968 C 9.501990368443472 0.48504452625335315 9.50770764707411 0.49080623969199977 9.509870141063935 0.48668861414972786 L 9.510832895237488 0.48485197541864267 C 9.511294882644194 0.4840144500527962 9.511147326019527 0.48297234594195293 9.510470982503854 0.48229600242627857 C 9.509794638988181 0.4816196589106042 9.508752534877337 0.4814721022859392 9.50791500951149 0.48193408969264395 Z" fill="#769687" transform="matrix(1,0,0,1,0,0)" fill-rule="nonzero"></path></g><g clip-path="url(#SvgjsClipPath100013b3cd5f-636f-4443-bb6d-66d8a1033b8a)"><path d=" M 9.522630336764179 0.5024999999999997 C 9.518744731607448 0.5025000006001159 9.51559482658202 0.505649906112434 9.515594826582516 0.5095355112691661 C 9.51559482658301 0.5134211164258983 9.518744731609239 0.5165710219374139 9.522630336765971 0.516571022536541 C 9.526515941920913 0.5165710219364248 9.529665846946338 0.5134211164241067 9.529665846945845 0.5095355112673746 C 9.529665846945349 0.5056499061106424 9.52651594191912 0.5025000005991268 9.522630336762388 0.5024999999999997 Z" fill="#769687" transform="matrix(1,0,0,1,0,0)" fill-rule="nonzero"></path></g><g clip-path="url(#SvgjsClipPath100013b3cd5f-636f-4443-bb6d-66d8a1033b8a)"><path d=" M 9.790816620509329 0.2990700431282827 C 9.786017283152946 0.2992653658059938 9.78222709806346 0.3032129408232173 9.78222709806346 0.3080162511409889 C 9.78222709806346 0.31281956145875994 9.786017283152946 0.3167671364759841 9.790816620509329 0.31696245915369564 C 9.795615957865714 0.3167671364759841 9.799406142955197 0.31281956145875994 9.799406142955197 0.3080162511409889 C 9.799406142955197 0.3032129408232173 9.795615957865714 0.2992653658059938 9.790816620509329 0.2990700431282816 Z" fill="#769687" transform="matrix(1,0,0,1,0,0)" fill-rule="nonzero"></path></g><g clip-path="url(#SvgjsClipPath100013b3cd5f-636f-4443-bb6d-66d8a1033b8a)"><path d=" M 9.746878001188643 0.301439899555489 C 9.74250078759495 0.30157228431319716 9.739020978385524 0.30515892825223445 9.739020978385524 0.3095381433153359 C 9.739020978385524 0.31391735837843737 9.74250078759495 0.3175040023174747 9.746878001188643 0.3176363870751823 C 9.751255214782338 0.3175040023174747 9.754735023991765 0.31391735837843737 9.754735023991765 0.3095381433153359 C 9.754735023991765 0.30515892825223445 9.751255214782338 0.30157228431319716 9.746878001188643 0.3014398995554901 Z" fill="#769687" transform="matrix(1,0,0,1,0,0)" fill-rule="nonzero"></path></g><g clip-path="url(#SvgjsClipPath100013b3cd5f-636f-4443-bb6d-66d8a1033b8a)"><path d=" M 9.65293541125389 0.396641475717196 C 9.646984595524781 0.3966679878719342 9.641485883342039 0.39982095787544086 9.638457069643922 0.4049433790137556 C 9.635368537633267 0.41016135805846715 9.635368537633267 0.41664765601957 9.638457069643922 0.4218656350642816 C 9.640112357612475 0.42466627081760167 9.642441804274446 0.4270084466963065 9.645233377865466 0.4286789722925006 C 9.649972078747755 0.4312320518057217 9.65566926589612 0.4312653524612406 9.660437488006265 0.4287678419085213 C 9.66334143383699 0.4271365115348768 9.665751524322442 0.4247520058741134 9.667413752863858 0.42186563506428104 C 9.670502284874514 0.41664765601957 9.670502284874514 0.41016135805846715 9.667413752863858 0.4049433790137556 C 9.66438493916574 0.39982095787544086 9.658886226982998 0.39666798787193475 9.65293541125389 0.396641475717196 Z" fill="#769687" transform="matrix(1,0,0,1,0,0)" fill-rule="nonzero"></path></g><g clip-path="url(#SvgjsClipPath100013b3cd5f-636f-4443-bb6d-66d8a1033b8a)"><path d=" M 10.672854965311776 0.513319875750467 L 10.666315642732952 0.5563697989109495 L 10.639543670906848 0.5603244968238511 L 10.66581204824217 0.5670859934427263 L 10.671055355587367 0.6131722951505678 L 10.677231793900775 0.5677154865562031 L 10.706166259716705 0.5603244968238511 L 10.677735388391556 0.5560883784602187 L 10.672854965311776 0.513319875750467 Z" fill="#769687" transform="matrix(1,0,0,1,0,0)" fill-rule="nonzero"></path></g><g clip-path="url(#SvgjsClipPath100013b3cd5f-636f-4443-bb6d-66d8a1033b8a)"><path d=" M 10.53761762713294 0.45406605926895666 C 10.54334483939186 0.4539709822655361 10.547964730011902 0.4493510916454928 10.548059807015322 0.44362387938657477 C 10.54799567849797 0.4378848061430874 10.543356744429396 0.43324916209867587 10.537617627132942 0.4331891053055292 C 10.531894861140422 0.4332878957545283 10.527278297813236 0.4379011849233274 10.52717544725056 0.4436238793865753 C 10.527239501357688 0.4493641946698403 10.531877311849676 0.4540020051618284 10.53761762713294 0.45406605926895666 Z" fill="#769687" transform="matrix(1,0,0,1,0,0)" fill-rule="nonzero"></path></g><g clip-path="url(#SvgjsClipPath100013b3cd5f-636f-4443-bb6d-66d8a1033b8a)"><path d=" M 10.549622431097012 0.47911247938400037 L 10.547785792365925 0.4781497252104481 C 10.54694826700008 0.47768773780374274 10.545906162889235 0.4778352944284072 10.545229819373562 0.4785116379440816 C 10.544553475857887 0.4791879814597565 10.544405919233222 0.4802300855706003 10.544867906639928 0.48106761093644623 L 10.54583066081348 0.482904249667532 C 10.547993154803306 0.4870218752098039 10.553703027632608 0.4812601617711567 10.549622431097012 0.47911247938400037 Z" fill="#769687" transform="matrix(1,0,0,1,0,0)" fill-rule="nonzero"></path></g><g clip-path="url(#SvgjsClipPath100013b3cd5f-636f-4443-bb6d-66d8a1033b8a)"><path d=" M 10.533070465113237 0.49871563551780385 C 10.529184859956505 0.49871563611792 10.52603495493108 0.5018655416302381 10.526034954931573 0.5057511467869702 C 10.526034954932069 0.5096367519437024 10.529184859958297 0.512786657455218 10.53307046511503 0.5127866580543451 C 10.53695607026997 0.5127866574542284 10.540105975295395 0.5096367519419103 10.540105975294901 0.5057511467851787 C 10.540105975294408 0.5018655416284465 10.536956070268179 0.4987156361169309 10.533070465111447 0.49871563551780385 Z" fill="#769687" transform="matrix(1,0,0,1,0,0)" fill-rule="nonzero"></path></g><g clip-path="url(#SvgjsClipPath100013b3cd5f-636f-4443-bb6d-66d8a1033b8a)"><path d=" M 10.264876775566753 0.29528567864608574 C 10.260077438210368 0.2954810013237979 10.256287253120885 0.29942857634102144 10.256287253120885 0.304231886658793 C 10.256287253120885 0.30903519697656406 10.260077438210368 0.3129827719937882 10.264876775566753 0.31317809467149976 C 10.269676112923136 0.3129827719937882 10.273466298012622 0.30903519697656406 10.273466298012622 0.304231886658793 C 10.273466298012622 0.29942857634102144 10.269676112923136 0.2954810013237979 10.264876775566753 0.29528567864608574 Z" fill="#769687" transform="matrix(1,0,0,1,0,0)" fill-rule="nonzero"></path></g><g clip-path="url(#SvgjsClipPath100013b3cd5f-636f-4443-bb6d-66d8a1033b8a)"><path d=" M 10.308830206490107 0.29764812927195794 C 10.304452992896415 0.29778051402966615 10.300973183686986 0.301367157968704 10.300973183686986 0.3057463730318049 C 10.300973183686986 0.31012558809490637 10.304452992896415 0.31371223203394366 10.308830206490107 0.31384461679165127 C 10.313207420083803 0.31371223203394366 10.31668722929323 0.31012558809490637 10.31668722929323 0.3057463730318049 C 10.31668722929323 0.301367157968704 10.313207420083803 0.29778051402966615 10.308830206490107 0.29764812927195905 Z" fill="#769687" transform="matrix(1,0,0,1,0,0)" fill-rule="nonzero"></path></g><g clip-path="url(#SvgjsClipPath100013b3cd5f-636f-4443-bb6d-66d8a1033b8a)"><path d=" M 10.40277279642486 0.3928571112350001 C 10.396820390341233 0.3928776998404776 10.391318959566927 0.39603222868855786 10.388294454814893 0.4011590145315597 C 10.385202719026063 0.40637611602452667 10.385202719026063 0.4128641690891187 10.388294454814893 0.41808127058208516 C 10.389954652035208 0.4209666731682931 10.392362089981807 0.4233510856722573 10.395263313871148 0.4249834774263254 C 10.400031535981293 0.4274809879790447 10.405728723129661 0.42744768732352584 10.410467424011948 0.42489460781030475 C 10.413258997602968 0.42322408221411006 10.415588444264941 0.4208819063354058 10.417243732233494 0.4180812705820846 C 10.42033226424415 0.4128632915373741 10.42033226424415 0.4063769935762713 10.417243732233494 0.4011590145315597 C 10.414220576334252 0.3960344931122536 10.408722557203191 0.3928803071112726 10.40277279642486 0.3928571112350001 Z" fill="#769687" transform="matrix(1,0,0,1,0,0)" fill-rule="nonzero"></path></g><g clip-path="url(#SvgjsClipPath100013b3cd5f-636f-4443-bb6d-66d8a1033b8a)"><path d=" M 10.032645657303135 0.15332387285505042 C 10.030897541693973 0.152313710431355 10.02904832424325 0.15148962963452337 10.027128335308543 0.1508651468118224 C 10.025037263107853 0.15037066335082658 10.02289303691196 0.15013683822041668 10.020744534557755 0.15016900148633086 C 10.015285563805074 0.14983430229859182 10.009950566510524 0.15188830328332212 10.006125482722421 0.1557974105009471 C 9.999696776534991 0.16254973309236964 9.999696776534991 0.17315837705635537 10.006125482722421 0.17991069964777737 C 10.009952772829386 0.18381645182117584 10.015286177044652 0.18586983946231156 10.020744534557755 0.18553910866239523 C 10.02289413340942 0.18560726571015715 10.025042740667002 0.1853754554143855 10.027128335308545 0.1848503691382383 C 10.02903181172412 0.18418362128603277 10.03087715401992 0.18336126740387756 10.032645657303137 0.18239164309501193 C 10.037749546034767 0.1793275340489501 10.040872148680824 0.173810777749148 10.040872148680824 0.16785775797503064 C 10.040872148680824 0.1619047382009138 10.037749546034767 0.15638798190111114 10.032645657303135 0.15332387285505042 Z" fill="#769687" transform="matrix(1,0,0,1,0,0)" fill-rule="nonzero"></path></g><g clip-path="url(#SvgjsClipPath100013b3cd5f-636f-4443-bb6d-66d8a1033b8a)"><path d=" M 10.796783644852034 0.5742844323403674 C 10.752055188659625 0.5270556673662791 10.702052118905335 0.48511849059128753 10.647756704587387 0.44929672320920133 C 10.546770668151883 0.3828487257108699 10.440756095967767 0.3243779068960691 10.330677320428423 0.274416130483994 C 10.276687239990487 0.2498000973071996 10.22126590194531 0.2284526189490576 10.164713312510584 0.21048925336008484 C 10.161563515253869 0.20924305536662097 10.158506980182532 0.2077729486197593 10.155567147861829 0.20609020736708183 C 10.150849385667897 0.17316871241621654 10.136541160496689 0.14236546042297002 10.114427921445783 0.1175242292015537 C 10.11368734131228 0.11662812724001709 10.11383545733898 0.11493219873429691 10.11345035566956 0.11303631359253113 C 10.11533883500999 0.10981479001179748 10.117293966562437 0.10612670094695573 10.119560141770954 0.10266819172350072 C 10.142014531418742 0.06806828788627825 10.161906513804608 0.031965006378046064 10.18213916305189 -0.003930912692804798 C 10.1845433201487 -0.00815372156351414 10.186541944099817 -0.012594832601294955 10.188108238927917 -0.01719470288382963 C 10.18830914661278 -0.019206003037658795 10.187622142042574 -0.0212048076730212 10.186227165388821 -0.02266759007041109 C 10.184178700249184 -0.024734694376147913 10.180881015240503 -0.024867248381399133 10.1786732480271 -0.022971227925147646 C 10.176947754424468 -0.021802826205116272 10.175482769176844 -0.02028993266195788 10.174370477451452 -0.01852774712413319 C 10.17175622958019 -0.014410121581861838 10.169490054371673 -0.010062916198203728 10.16696467611643 -0.005863826841246322 C 10.148390926368196 0.02534421998453637 10.12978755341462 0.05653251800675886 10.111154557255706 0.08770106722542113 C 10.107999685886984 0.09295178037195098 10.10402277057008 0.09770630482903547 10.100045855253171 0.10325325002896729 C 10.096757679460422 0.10177208976196248 10.09426192441052 0.10075749497906464 10.091899473784647 0.09948369714944115 C 10.085167600371111 0.0957807964819302 10.078724553209643 0.0915002433102873 10.071763099954723 0.08832315453756343 C 10.051123131634016 0.0789103810407508 10.029720365775802 0.07289687035671254 10.006777193239905 0.07759955420445155 C 9.992419934509657 0.08072221651496404 9.978632514447838 0.08604832261603203 9.96590457567192 0.09338872265071795 C 9.959979934603902 0.09671392745014254 9.953855336899839 0.09977992920284255 9.947190115698318 0.10330509063831275 C 9.945331259563227 0.1009056110057659 9.943909345706903 0.0993503927254113 9.942805881307985 0.09759521780901106 C 9.931697179305452 0.07982129460495879 9.920344085858863 0.06221770483161099 9.909553833313737 0.04427344819685314 C 9.898763580768609 0.02632919156209472 9.888639850343635 0.007985021655245624 9.877945873215863 -0.010048104595533435 C 9.87506929602763 -0.014764535590826907 9.871673555789641 -0.019143972342529205 9.867822142790889 -0.02310453234917695 C 9.866767146499564 -0.024056510131277197 9.865367621727113 -0.02453368611116696 9.863950810503487 -0.024424485246104185 C 9.862533999279863 -0.02431528438104197 9.861224126646286 -0.023629281328357257 9.860327471839847 -0.022526879845045533 C 9.859013976255794 -0.021049432820838484 9.85844674549288 -0.019053216866735636 9.858787065162161 -0.017105833267809543 C 9.860603944368682 -0.01257348875646866 9.862778223150453 -0.008192737999124233 9.86528935873431 -0.004004970706155707 C 9.886025602472372 0.03159224771085018 9.90679393801622 0.06717218592473999 9.927594365365852 0.10273484393551538 C 9.929993844998398 0.10685246947778784 9.931948976550844 0.111229298066786 9.934259586567372 0.11570980787447338 C 9.930882541158601 0.12015328867548675 9.927986872836607 0.12403392857503842 9.925054175507938 0.1278775394679149 C 9.909071460271411 0.14744884094689895 9.898502190865086 0.17087028066538398 9.894401563782282 0.1958035493127358 C 9.894118596115016 0.20299545693468357 9.889075725876669 0.20911656249125957 9.88207090455947 0.21077067381081485 C 9.877368220711732 0.21208890644844866 9.872754406480013 0.21373299434482393 9.868125780645624 0.21526599522117312 C 9.797306421694335 0.23906194820322835 9.728157294713117 0.26756626291755087 9.661141039133097 0.3005882324019605 C 9.604141054857879 0.32876977508216415 9.548205037374458 0.35892126091748333 9.493332986682836 0.39104268990791874 C 9.432351605559896 0.425191110787185 9.374463464320709 0.4645910271307948 9.320326061695388 0.5087949311347663 C 9.293899411174916 0.5305842701539671 9.26914399199517 0.554324717147344 9.246268048345168 0.5798165659376272 C 9.239262160282237 0.5878148313794508 9.238936305023497 0.5943319365542701 9.24660871520658 0.6017599552932974 C 9.25405374211036 0.6091287841076993 9.262064128148582 0.6159035650043225 9.270566482525377 0.6220222277459172 C 9.283156344794913 0.6308425371359281 9.296168337740546 0.6390555708164681 9.309380287322226 0.646846473820911 C 9.340782095374317 0.666457569725597 9.373437886385164 0.6839853181583128 9.407136864944516 0.6993165762795405 C 9.417993769701658 0.7039526079152648 9.42904322529351 0.7081516972722222 9.442336638689875 0.7134838742334381 C 9.439537245785235 0.7188012395919837 9.437796882471506 0.7225337634648347 9.435671417488354 0.7260737365029751 C 9.417795350135302 0.7568973725115752 9.402525789052174 0.7891606372011707 9.39002205805928 0.8225268930903008 C 9.371729539663395 0.8679112757078737 9.360717308295122 0.9158992108578683 9.357392097377174 0.9647182787227218 C 9.356525618620976 0.9793521421607253 9.356725575257022 0.9940674694134143 9.357058836317098 1.0087383618580925 C 9.357332850966495 1.0206542962061431 9.361087592243349 1.0250311247951407 9.37289984537271 1.027186212983632 C 9.380483708892772 1.028479867812822 9.388164440750378 1.0291215805712475 9.395857829511279 1.0291043155294028 C 9.44353010007079 1.029667750522695 9.49064653146707 1.018828127455723 9.533279879083945 0.9974889496301943 C 9.56642791476765 0.9821930708796972 9.595441970533805 0.9591991714294201 9.617905970939242 0.9304220127402364 C 9.622482756164285 0.9242900092348381 9.627437237257414 0.9184468319815053 9.632073268893139 0.912648089536183 C 9.637205489218308 0.9111669292691787 9.641826709251363 0.9096265225914945 9.646573827907112 0.9085971162059263 C 9.691027692980121 0.8980936690126082 9.73167524941825 0.875410537359911 9.763955779067208 0.8430928033976566 C 9.792065720939876 0.8156428811874809 9.813761265708878 0.7823193943683701 9.827490148720361 0.7455065592060724 C 9.840274578001498 0.7107520995749296 9.84724545730027 0.6741287110982155 9.848122711239732 0.6371078450653569 C 9.848330073677113 0.6330124369270893 9.848685552141195 0.628961463596832 9.84891513198258 0.6256362587974075 L 9.89463114362367 0.593717255043463 L 9.910775790534018 0.6230590399328199 C 9.90315986932881 0.6400568296290643 9.901419333044275 0.6591063218090524 9.905828715242222 0.6772028534931652 C 9.906606672691805 0.6798787190777769 9.906708458338843 0.682705815424246 9.906124947295623 0.6854306987763744 C 9.904016380579895 0.6957757673707653 9.905566078201664 0.7065320300867202 9.910509181685956 0.7158611364619795 C 9.91413605590622 0.7248380209210415 9.916062206353685 0.734411013757732 9.916189431309919 0.7440920511510833 C 9.917715026384933 0.7634730332448357 9.918862925591862 0.783209493802669 9.929431004096937 0.8005835037346306 C 9.931948976550846 0.8047159408795728 9.934385485190067 0.8089002186338599 9.935592630807676 0.810951625603661 C 9.934318832978052 0.822978646971737 9.932882107519058 0.8326135945086001 9.932356295624272 0.8422929768534742 C 9.931755874077421 0.8632544157179309 9.9335197113577 0.8842167522968003 9.937614414572137 0.9047831285183893 C 9.943474758223473 0.9444869223728598 9.961657522259497 0.9813472371568163 9.989595734142657 1.0101602757144161 C 9.994532639806351 1.0150773368452493 9.999739576010608 1.0197156142997525 10.005192351754214 1.0240535590189168 C 10.00969164681214 1.0274311638630507 10.015121560137974 1.029341976219142 10.020744534557759 1.0295264462054985 C 10.032816751087479 1.0302216549819536 10.044520315734255 1.0252355857738231 10.052382117860972 1.0160478877757586 C 10.077882323121264 0.9918582698265096 10.095977444237136 0.9609154842930956 10.104555988266203 0.9268301990927488 C 10.107374734914028 0.9167576749865232 10.109568561505814 0.9065206419950887 10.111124934050366 0.8961775873670932 C 10.113724370318959 0.8713237180867593 10.119930431837707 0.8464846604090958 10.112954166980117 0.8213345590753611 C 10.111185577290643 0.8159380013498495 10.112005365350296 0.8100273294397384 10.115175907380623 0.8053158107877085 C 10.128684089015701 0.7853201471831496 10.130172655084042 0.7620733367925159 10.131105786052254 0.7391079468526127 C 10.13087138744442 0.7329412561040396 10.132094342027983 0.7268061851848345 10.134675382295734 0.7212007192245294 C 10.138958875413 0.7139551215976095 10.141454412361561 0.7057932179459055 10.141955285008061 0.6973910679324345 C 10.142244111260126 0.6848382346695722 10.142784734757582 0.6722928072080449 10.143006908797634 0.6597399739451824 C 10.143647780703887 0.6499518591872125 10.142336215631445 0.6401340016391952 10.139148486302087 0.6308573487385973 C 10.137875023226874 0.6276256408492302 10.137659803005228 0.624073210684739 10.138533804791281 0.6207114009096169 C 10.140364947716185 0.6161919328725018 10.142595524617995 0.6118447863327479 10.1451990259928 0.6077216253679886 C 10.147107611051092 0.6027827244859095 10.149811937368028 0.5981896226192174 10.153204697235962 0.5941245741168882 L 10.198876274069042 0.6260139546654927 C 10.199439644770603 0.6287435335128301 10.199825554896377 0.6315067489646841 10.200031579077304 0.6342862347567123 C 10.200269448720135 0.6517340739741095 10.201754394178382 0.6691425845629465 10.204475059878318 0.686378641347262 C 10.213754058633633 0.7535400059892469 10.247906009773388 0.8147714255841858 10.30017282472947 0.8579562466770446 C 10.324839234920653 0.8787156216131112 10.353289381996436 0.8945061699635799 10.383954655232571 0.9044572732596473 C 10.393878429021502 0.9076343620323717 10.404113246466503 0.9098635082342136 10.415162702058357 0.9127887997615469 C 10.419095182567252 0.9176766286426618 10.423538663368266 0.923031023007882 10.427752564327895 0.9285261275984684 C 10.4382122563214 0.9425648883935882 10.45045297909074 0.9551840105651925 10.464166889492198 0.966066134565695 C 10.519796679423838 1.0094293095384095 10.58898660185205 1.0316888864175935 10.65946527649806 1.028896953092021 C 10.665691120296419 1.0283224488928884 10.671874774277075 1.0273577988719058 10.677979779835615 1.0260086905713628 C 10.68517453705041 1.0248825869655502 10.690561894399746 1.018815211599207 10.690828845151877 1.0115377547627293 C 10.691244459363302 1.008066111806356 10.691370792897091 1.0045659297819856 10.691206541019966 1.0010733574763435 C 10.691594978516628 0.9822290244673805 10.690589988793874 0.9633817541495168 10.688199785677947 0.9446855861114888 C 10.683937914016825 0.9107564549099301 10.676367707342232 0.8773255094446085 10.66559728000346 0.8448701957180622 C 10.651830723634944 0.804527349099524 10.634238425096182 0.7655931671064907 10.613060525332813 0.728599114758215 C 10.61038703105087 0.7240371411358433 10.605773216819152 0.7197121531561906 10.608194913855703 0.712602583874569 C 10.61023891502417 0.711721293515701 10.612682829464726 0.7105141478980928 10.615230425123974 0.7095736111285453 C 10.640784692276672 0.7001131878171111 10.66552127968075 0.688575886913116 10.689192163056838 0.6750773885100132 C 10.712283451619436 0.662013554955034 10.735256247360676 0.6486757067506593 10.757755071816472 0.6346269016181229 C 10.7707448473581 0.6264805201495987 10.782720028116831 0.6167715145993852 10.795109933750322 0.6077142195666534 C 10.80912170987618 0.5974497789163161 10.807033273899703 0.585082090686829 10.796783644852034 0.5742844323403674 Z M 10.083345773242696 0.9435228753018913 C 10.074518286637808 0.9656592671790035 10.061146976908674 0.9856985715523064 10.04409502616708 1.0023471553059702 C 10.038632087120233 1.0072163275855202 10.032762568022022 1.011609175775106 10.02655068280441 1.0154776410729647 C 10.017801811114168 1.0140873709673182 10.009835186578487 1.0096235404760008 10.004081481553957 1.002887778803427 C 9.980975947134514 0.9803213118581303 9.964588256738935 0.9517838616401736 9.956743599420495 0.9204538041432984 C 9.949551548950229 0.893491250604939 9.945921464449558 0.8657029288546175 9.945945941074033 0.8377976554431175 C 9.946569325491197 0.8328737946290069 9.947574606785542 0.8280058561445717 9.948952696416052 0.8232378500184654 C 9.966485762986515 0.8354900312592064 9.986575868025724 0.8435939435402429 10.007702918406782 0.8469364142905347 C 10.016575829615283 0.848886846591936 10.025737988434908 0.8491381400318603 10.03470447007427 0.8476769944240371 C 10.054823771011398 0.845014238689847 10.074198902853617 0.8383190878270526 10.09166989394326 0.8279923744755487 C 10.093480840511809 0.8270329054168228 10.095380710873203 0.8262516271350483 10.097342737765889 0.8256595470550171 C 10.101267812473449 0.8278146352435086 10.100534638141282 0.8315841881230347 10.100675348366646 0.8347612768957586 C 10.102276649150664 0.871811923725085 10.096382410192543 0.9088045704511325 10.083345773242696 0.9435228753018913 Z M 10.116420082004904 0.7549711733122327 C 10.115627661262057 0.7604884953068239 10.114331646028427 0.7659243534867303 10.113339268649534 0.7714046464746463 C 10.110791446804578 0.7889798901312741 10.100611006567203 0.8045324370114831 10.085523078835193 0.8138991345350025 C 10.049614318042835 0.8375514496282133 10.003373519832675 0.8387007176339336 9.96633411214935 0.8168614550690111 C 9.950115831102908 0.8080831968191332 9.938562565082542 0.7926346285955571 9.934726152051475 0.7745965468500411 C 9.932113576928298 0.7660563170963113 9.9313908343752 0.7570498329730939 9.932608092869659 0.748202270892023 C 9.935137356943843 0.7482763338795625 9.937631929285326 0.7488108850955947 9.939969459396671 0.7497797065763818 C 9.959845908100329 0.7615127230102151 9.981904812329189 0.769072320072881 10.004799844283452 0.771997110581448 C 10.019301697081728 0.7743395795979542 10.034109470971796 0.7740133066139353 10.048494072160082 0.7710343564078951 C 10.071907619569023 0.7675205166438211 10.094235580314196 0.7588024134173532 10.11383545733898 0.7455213708087444 C 10.118182662722639 0.7482467057000327 10.116864430085005 0.7518459251488533 10.116420082004904 0.7549637675108977 Z M 9.930823294747919 0.7461508639222219 C 9.931215802218675 0.7462841683462522 9.931793454722806 0.7463137915515923 9.931956382352178 0.7465804003996531 C 9.93208516111467 0.7468328199798059 9.932167919050297 0.7471061719489949 9.932200773796232 0.7473876327451702 Z M 10.124618304082773 0.7085960453523255 C 10.118228024941812 0.7227245162504502 10.107103079162592 0.7341768974481789 10.093165865812935 0.7409742087890417 C 10.077608945378822 0.7489205604594754 10.060802810650598 0.7541359983047821 10.043480344656274 0.756393087168557 C 10.014315006808946 0.7605743622089517 9.984566147265301 0.7558965927074228 9.958091455263471 0.7429663693481623 C 9.940809333358493 0.7363781627334524 9.927346384175772 0.7224539678108972 9.921343869039092 0.7049597968968296 C 9.921108135465872 0.702975523233509 9.921090751319985 0.7009713795578566 9.921292028429747 0.6989833152194672 C 9.984981919910936 0.734375639799537 10.047064752502424 0.7400781068275035 10.122307694066247 0.7019456357534757 C 10.125699551077686 0.7032564625897744 10.125729174283027 0.705833681454362 10.124618304082773 0.7085886395509903 Z M 10.11038435391686 0.6902814986508163 C 10.090508976053314 0.7019968630878137 10.068216365896578 0.7090089022825687 10.045213302168667 0.7107807567461564 C 10.041066053421055 0.7109733075808674 10.036955833680118 0.71198049656243 10.032823396535175 0.712558149066562 C 10.029443162877625 0.713363087460962 10.025981826900903 0.7137780502090689 10.02250711527549 0.7137949178895098 C 9.993238695763443 0.7121774167279632 9.964632219177483 0.7044556861433404 9.938525328136341 0.6911257600030086 C 9.927191281060168 0.685342912267243 9.91926201762457 0.6745380205610991 9.917144779682133 0.6619913375510319 C 9.915589561401779 0.6538449560825076 9.920440361276217 0.6473722857156986 9.919677563738711 0.6373448307080793 C 9.934578036024774 0.6464984011581664 9.944486998211033 0.6574441755313287 9.957810034812738 0.6632651353806559 C 9.970946952127981 0.6697506046942341 9.985114119806791 0.6738957480412622 9.999675029759617 0.6755143307887824 C 10.01496059859792 0.6765794601354967 10.030300454317256 0.676616572689656 10.045590998036754 0.6756254178088074 C 10.060200931516535 0.6744077213876135 10.074457278786095 0.6704851541099924 10.087633732215675 0.6640575561235033 C 10.100857913392307 0.6580137951248498 10.112878793303512 0.6496260260697143 10.123114926411763 0.6392999622605247 C 10.124899724533504 0.6405589484874784 10.126625276244564 0.6411069777862703 10.12703259531799 0.642166007377178 C 10.134682788097068 0.6622431347964229 10.128735929625046 0.6803577248618864 10.11038435391686 0.6902444696441407 Z M 10.128254552538268 0.6082252198587735 C 10.127700248928212 0.6051683808349444 10.124982673385611 0.6029842202362462 10.121878157588814 0.6031004053349378 C 10.118234645718827 0.6032702387826622 10.115367941111677 0.6062736804555606 10.115367941111677 0.6099211483644931 C 10.115367941111677 0.6135686162734256 10.118234645718827 0.6165720579463241 10.121878157588814 0.6167418913940484 C 10.122126117933192 0.6167298359978102 10.12237330027659 0.6167051177634701 10.122618737722316 0.6166678333806981 C 10.108171558551815 0.6368749632111694 10.08697761971848 0.65125290610046 10.062861326750024 0.6572071898886079 C 10.056829222710789 0.6588327050999915 10.050639010918317 0.6598010896162622 10.044398664021815 0.6600954524092666 C 10.033289962019282 0.6605694236947082 10.022107202003399 0.6603472496546572 10.010954065192855 0.6602657858399722 C 9.967793055012347 0.6599547421839016 9.937118225882687 0.6389148605911042 9.915893199256514 0.6025523760361464 C 9.91241987843039 0.5966277349681288 9.910005587195172 0.5900217601772888 9.906754440409097 0.5829714373063485 L 9.947204927300987 0.5372702372679278 C 10.013701617488149 0.560324496823851 10.031727337937593 0.5609095551293182 10.10029765249856 0.5376331215333437 L 10.140681487178435 0.5821567991594957 C 10.13737524155568 0.5912183341835937 10.133214173350705 0.5999446744775817 10.128254552538268 0.6082178140574378 Z M 9.957262005513947 0.5225475042139041 C 9.96009842742526 0.5181040234128907 9.963001501548588 0.513660542611878 9.965771271247887 0.5093059314268853 C 9.968067614132556 0.5089135859655729 9.970405223843725 0.508821475678764 9.972725318701473 0.5090319167774893 C 9.99012760957709 0.5140175254305597 10.008130164051044 0.516598929781427 10.026232233347006 0.5167043269605726 C 10.040821409796846 0.5160552591548225 10.055303559317545 0.5138910030482158 10.06944508413686 0.5102464681964333 C 10.072799912141623 0.5095058880629303 10.076199174954398 0.508928235558799 10.079131872283067 0.5083653946573372 C 10.084749302112819 0.5115884442334804 10.088655389057145 0.5171290699893479 10.089803632006834 0.5235028525861218 C 10.055544395031024 0.5463793729100044 9.983041599961158 0.5430615739119149 9.957262005513948 0.522540098412569 Z M 10.76682717845187 0.610076670192529 C 10.727475098533313 0.6366924743560902 10.686390182246795 0.6606516655712318 10.643846441482498 0.6817944503208793 C 10.628694660892439 0.6893672969818976 10.612878344752687 0.6955302063742833 10.596597428965055 0.7002052724397457 C 10.593931340484447 0.6965023717722348 10.591413368030539 0.6932956597941704 10.589110163815349 0.6898889911800603 C 10.566256962734958 0.6555444164955483 10.540144144450863 0.6234843536255219 10.511134481558901 0.5941541973222311 C 10.49336055835485 0.5763802741181794 10.476467925509665 0.5576658141445785 10.458723625510952 0.5398400503311808 C 10.419831098379404 0.5006198718558496 10.37802700788981 0.4643984074502302 10.333669264167774 0.4314857709984766 C 10.2921227186783 0.40075169545813444 10.250000989285141 0.3708026348593049 10.207304075988294 0.34163858920198875 C 10.17383038960612 0.31879728354384185 10.138841075206916 0.29826045379252203 10.102578639309748 0.2801704381213071 C 10.093862011138427 0.2757787979296392 10.084804716105696 0.27202405665278284 10.075917754503669 0.2680619529385462 C 10.0740060432853 0.26721373938104476 10.072038989557967 0.2664961977698164 10.070030142442326 0.26591427055139044 C 10.065157125163882 0.2644701392910608 10.060024904838713 0.26653635786353164 10.059662020573295 0.2700022728883223 C 10.059382464305695 0.2735936424046002 10.061538159988707 0.2769287552756475 10.064927545322497 0.27814865435684605 C 10.071785317358728 0.28157013457362695 10.078902292441683 0.2844880202996257 10.085804499285924 0.28783544250305576 C 10.122089821795493 0.30587895956337163 10.157121651418748 0.3263403785184057 10.190663240388501 0.34908141954368693 C 10.250358392609776 0.3880276608732408 10.308025923136551 0.42999667076668696 10.363440585534565 0.4748245204110268 C 10.385006279022145 0.4925984436150769 10.406216494045648 0.5108759613099108 10.426234375054213 0.5303087840130085 C 10.456324145878407 0.559517264478335 10.485925133814488 0.5892885858451232 10.514467092159663 0.6200004439814589 C 10.564372899789593 0.6739973584639095 10.604575226702886 0.7362099958554068 10.633300580381427 0.8038938969313888 C 10.649689361144828 0.8416789632276706 10.661813518070542 0.8811737583759713 10.669448296697666 0.9216461381582375 C 10.675470214272279 0.9511123179929668 10.677216163800237 0.9812923026905088 10.674632357632184 1.0112563343120033 C 10.66669333860104 1.0120635666575204 10.660561335095641 1.013137407851099 10.654399708384904 1.0132484948711244 C 10.59027470680747 1.0152303057986107 10.527450964296373 0.9948858838487672 10.476660476344378 0.9556906068953339 C 10.46876776463059 0.9499146129378968 10.461475866757741 0.9433595962042923 10.454894826220748 0.9361244797682057 C 10.429785262203621 0.9088459914797444 10.408537346847634 0.8782511861858795 10.391745558237016 0.845196050976806 C 10.377916267854904 0.8176732505490012 10.369883090476216 0.7876049189047093 10.368143269382301 0.7568522468513299 C 10.368564278520473 0.7505355488148887 10.36701148923584 0.7442441642299775 10.363699788581288 0.7388487438058915 C 10.362906022974025 0.7377285814047384 10.361654639252704 0.737020097345595 10.360285714165842 0.7369158296574505 C 10.35839723482541 0.7372120617108519 10.355664494132789 0.7379822650496938 10.355057218423317 0.739344932495338 C 10.353538309221106 0.7423948596472201 10.352776244288824 0.7457657268643444 10.352835478022811 0.7491724308669121 C 10.354405280903144 0.7848272220686484 10.363100362526797 0.8198064803467214 10.378407710032642 0.8520464172117018 C 10.383162234489724 0.8613777268938295 10.388175961993534 0.8705609205492565 10.39301935606664 0.8798626070260441 C 10.394500516333643 0.8827730869507072 10.395885401183293 0.8857872480940617 10.3972406628276 0.8885570177933593 C 10.394174789433226 0.8909442985863089 10.389958280566796 0.8912059926512409 10.38662074371318 0.8892161341121767 C 10.340788991290305 0.873235920140238 10.300651457366449 0.8441627295106348 10.271179112502859 0.8055972312384435 C 10.241719469311327 0.7663096999690832 10.22305096556153 0.7199984322560659 10.217027893141179 0.6712634008224806 C 10.21342165035525 0.6421510646093854 10.2123289614099 0.6127822617312989 10.213761934752434 0.5834824375984657 C 10.214165548054726 0.5807224082573541 10.214165548054726 0.5779183462390124 10.213761934752434 0.5751583168979008 C 10.213044209106444 0.5726534465659714 10.211498735612741 0.5704657661813036 10.2093777003621 0.5689522553791526 C 10.206948597524214 0.5674118487014677 10.20247549351786 0.5707888941102378 10.201883029411059 0.5743510845523832 C 10.201201695688237 0.5784687100946551 10.200786970813475 0.582638176246273 10.2004537097534 0.5868002365965552 C 10.200016767474633 0.5922731237831361 10.199764970229243 0.5977682283737225 10.199342839553147 0.6047889280393228 C 10.196459526616966 0.6040559106583123 10.193659979512255 0.6030259354380508 10.190989095647241 0.6017155204852888 C 10.159630421255423 0.5805436605743545 10.132251494119846 0.5540070848276207 10.110110339267466 0.5233251133540812 C 10.091849785750119 0.49940997403073606 10.077075996598264 0.4730241112788509 10.066230966357463 0.44495692362687944 C 10.061713427543099 0.4325448005893831 10.058551150373043 0.41962908306110464 10.054700133678832 0.4069651627782172 C 10.054109639379707 0.40428005742884054 10.05309197468106 0.4017071410285808 10.051685972535477 0.3993445932044794 C 10.05035491472237 0.39782694405852165 10.048398766912138 0.3970073290542343 10.046383418779604 0.39712285280397275 C 10.044776359889903 0.39736724424802866 10.042332445449345 0.3994260570191649 10.042213952627986 0.4008257534714837 C 10.041606799431854 0.40565010848371225 10.041729130700327 0.41053836610963 10.042576836893401 0.41532631248545737 C 10.045401203870627 0.4297130212070806 10.04971741960209 0.4437661629388462 10.055455525415004 0.4572579596443514 C 10.059847165606673 0.46676700855851927 10.064261023202347 0.4762612458700174 10.068541576373988 0.4858147295921956 C 10.069645040772908 0.488273455635423 10.070296751290389 0.490924732513361 10.071244693861273 0.49374634282200447 C 10.056092424329817 0.5021074925292441 10.039340501709997 0.4999079695327423 10.024040116151841 0.5041663053003799 C 10.008228730301571 0.49953767946599115 9.990639952130893 0.5026851450333756 9.975258102758053 0.49336124115258306 C 9.980397728884556 0.4822525391500502 9.985381833183027 0.47159559102895354 9.990351125878828 0.460886802298512 C 9.99779859185312 0.4435612157609253 10.003165756624078 0.4254137850856145 10.00634025096114 0.4068244525528522 C 10.006730058311028 0.4048016163286677 10.00647086528986 0.4027073367176316 10.005599670827637 0.40084056507415394 C 10.004662657010702 0.3990166843240388 10.003049201606743 0.39763182391965296 10.001104349417279 0.3969821425786072 C 9.999104147216892 0.39669068137983654 9.997080375142113 0.39732890599641074 9.995609244826692 0.398715100091002 C 9.993815583603244 0.4008367956868776 9.992605721967296 0.40338924639562657 9.992098894993894 0.4061209014260244 C 9.986472139521002 0.4349602168309053 9.975756666679695 0.462567668389517 9.960453905889342 0.48765136832328126 C 9.938759812200555 0.5252835172406717 9.910563822596812 0.5587701727460509 9.87717566987702 0.5865558451524998 C 9.869262894950625 0.5934260972934137 9.860617587426917 0.5994040505279908 9.851396075429811 0.604381608965897 C 9.84641197113134 0.5993012292500722 9.848493001306482 0.5935469216127596 9.84809308803439 0.5883776722809142 C 9.848359645005873 0.5820723124842344 9.846664927676704 0.5758393750094741 9.843242288159951 0.5705370968648467 C 9.842402984394715 0.56946176813795 9.841132084636424 0.5688114143170768 9.839768967333825 0.5687597045444416 C 9.837895299596065 0.5691151830085225 9.83492557326072 0.5700705313807403 9.834636747008656 0.571299894402354 C 9.833428701554814 0.5759234156338948 9.83285076059372 0.5806889374380916 9.832918601098932 0.5854671923562511 C 9.833311108569687 0.5959019664372966 9.835443979354174 0.6063589579223483 9.834970008068732 0.6167122681887084 C 9.832807514078906 0.6635835848380622 9.82740127910434 0.709788379367264 9.8073463690891 0.7532085925944979 C 9.78607318776773 0.8023462040914969 9.749372532289337 0.8432168568346996 9.702798671642595 0.8696351953823777 C 9.68945022385735 0.8772302155246395 9.675529503884164 0.8837721120328501 9.661163256537103 0.8892013225095059 C 9.658123437561647 0.890050097628522 9.655008163264759 0.8906007273211249 9.651861570060316 0.8908454104058806 C 9.64804758237278 0.8869795821089986 9.651313540761524 0.884980015748543 9.652483657372457 0.8829952609907571 C 9.667828865510508 0.857957093288124 9.679449331650915 0.8308193881195217 9.68697987999099 0.8024349540683883 C 9.691435414833268 0.7841061103393174 9.693758953696674 0.7653239641044316 9.693904304239235 0.746461907578293 C 9.694050994097942 0.744371634392329 9.69366895802167 0.7422780766943509 9.692793434038983 0.7403743388809044 C 9.69184763388765 0.7386330591368807 9.690199761564614 0.7373816470945103 9.688268489423283 0.7369380470614543 C 9.686230904281766 0.7370114512680626 9.684352305670059 0.738058177767255 9.683217732912798 0.7397522515687627 C 9.681904734518676 0.7429295525932921 9.68104225588107 0.7462747732050433 9.68065532565088 0.7496908369603623 C 9.678552078071734 0.7634656274435028 9.6773819614608 0.7774329687613544 9.674478887337472 0.7910374258137898 C 9.666485315349648 0.8265832758745698 9.651181357238183 0.8600764472193696 9.629540484836559 0.8893864675428806 C 9.622223553117557 0.8996064733852109 9.61454373713314 0.9095746819821506 9.606819486340711 0.91949845577108 C 9.583216709327738 0.9491796098003855 9.552631444430608 0.97255427319028 9.517794348492414 0.9875355526359265 C 9.478964158373596 1.0054181585840682 9.436576491041997 1.014238581891271 9.393836045746816 1.0133299586858078 C 9.389651767992529 1.013233683268453 9.385460084436907 1.0129078280097117 9.38129061828529 1.0124782915322803 C 9.378857290641937 1.0120627122693318 9.376449112597102 1.0115113532303188 9.374077367784977 1.0108267978345697 C 9.372619949916054 1.0072613057589348 9.37160519023886 1.0035305716516083 9.371055800840288 0.9997180958320376 C 9.370456688693961 0.9892509068168284 9.37056555509218 0.978755196334027 9.371381656099029 0.9683026865688747 C 9.377510279340871 0.9078118217488689 9.393485380893495 0.8487294621388102 9.418675103424478 0.7933924706383263 C 9.44398542567177 0.7380429240313562 9.476512943258472 0.6862882618047113 9.515409680462534 0.6394777014925654 C 9.518075768943142 0.636241366309161 9.520838132841105 0.6330716833377716 9.523756018567102 0.6300649279957528 C 9.556304515434524 0.5964055609280777 9.588364229413834 0.5622500051709568 9.621638494812087 0.529346029839454 C 9.64674679732059 0.505033830624707 9.673250156845313 0.4822050365276521 9.701013873520848 0.46097567191453426 C 9.759934428942286 0.4148967760080261 9.820938483139306 0.37175798323152215 9.884026036111914 0.3315592935850235 C 9.91235351520244 0.3136114663684193 9.941741659635571 0.29739518571134377 9.972029173375978 0.2829994542312852 C 9.975176638943365 0.28151829396427985 9.978420379928105 0.28017043812130654 9.981523410687478 0.2785559734302708 C 9.986085384309852 0.27623055181107425 9.988329342114364 0.27167598399003595 9.98656676139663 0.2686692286480165 C 9.983850628898006 0.26529431395421055 9.979120064301473 0.26432457929316056 9.975295131764726 0.26635861863149035 C 9.969444548710058 0.26863960544267595 9.963719864278087 0.2712538533139387 9.958024803051455 0.2738903185892075 C 9.931438835384311 0.2863166575997576 9.905618265591759 0.3003187710147019 9.880700831312488 0.31582196574810256 C 9.803471714501155 0.36366688199292185 9.729622316733419 0.4167632256786335 9.659674690468764 0.4747356507950006 C 9.639249490386769 0.491643095242858 9.619638928451632 0.5096688156923007 9.60086522206735 0.5284054930699065 C 9.570701393229808 0.5585174812981059 9.54144847795647 0.5895477888918478 9.511995606047089 0.6203633282468739 C 9.49412916987666 0.6400175156238574 9.477728232921162 0.6609555665907401 9.462924766401231 0.6830090017398249 C 9.459318141151078 0.6880967872569849 9.455674486894246 0.6931475437674697 9.451579078755978 0.6988648223981065 C 9.446750285473206 0.6981902281516871 9.441970757893124 0.6972006779280676 9.437271070576717 0.695902501864098 C 9.412903810256267 0.6872374355532935 9.38946189907651 0.6761627513003106 9.367293653762095 0.6628430047045593 C 9.340203232478585 0.6469131260329273 9.31334239103646 0.6305907398905387 9.286570419210356 0.6141054261187803 C 9.276237325306804 0.6083777839232888 9.266986202724686 0.6008861541758082 9.25923560648279 0.5919694859284002 C 9.259072678853418 0.5867854249938843 9.26305699997166 0.5845636845933777 9.265745305856274 0.5816828278740541 C 9.308506647566052 0.5364418305290819 9.356360397663106 0.49630193794663235 9.408351416363457 0.46206432471077913 C 9.46171021498229 0.4261239708319185 9.51740924682299 0.39407906845527874 9.573834047194522 0.3632931523055921 C 9.619816667683672 0.3382097031838732 9.66622141884892 0.3139260806063357 9.714114736082507 0.29260477856280775 C 9.800352438531988 0.25286787083367906 9.890000383662173 0.2209948635778431 9.981967758767583 0.1973735791957596 C 9.9860383297034 0.1963544133739315 9.990005200754714 0.19495857062274954 9.993817040903616 0.19320411304414334 C 9.996386853966868 0.19203399643320967 9.99870486978473 0.1895012123766324 9.997134839901705 0.18664257306131427 C 9.99580056164943 0.18433542944979409 9.993535963795518 0.18271593158048838 9.99092137258162 0.18219909226030093 C 9.986048365105907 0.18202813992117575 9.981175835615467 0.18255179969241117 9.97645043677299 0.18375431054065552 C 9.960209514445285 0.1877978780695782 9.944072273336273 0.19224876467192614 9.92787578581658 0.19649969463822844 C 9.921862275132543 0.19807713032258795 9.915804329640494 0.1995212615829176 9.908435557312147 0.20135790031400222 C 9.90810377350603 0.19853397492541383 9.908136130116404 0.19567912630240258 9.908531832729503 0.19286344618273216 C 9.914877944250104 0.16914770774261836 9.926903259751125 0.14733387184539995 9.943568678845493 0.12930685912557313 C 9.963542894128246 0.10839467241013923 9.99021372405489 0.0951431115004288 10.018944924833345 0.09185572177436767 C 10.023053239130958 0.09137288567469987 10.027210154802209 0.0914951479003245 10.031282989857491 0.09221860603978373 C 10.071567685035824 0.09752903187757554 10.106622776360092 0.12240996858262182 10.124929347738846 0.1586856730216058 C 10.129424669149204 0.1673430547822463 10.133216439432735 0.17639294401364286 10.13688231109357 0.18544283324504054 C 10.13793655813875 0.18876887963125438 10.138490640082544 0.19223313971227882 10.138526398989944 0.19572208549805087 C 10.1386226744073 0.19692182531432456 10.137659920233748 0.19821784054795352 10.136904528497576 0.2001655662990642 C 10.126144825022557 0.19857252848404866 10.115549289955581 0.19601968611703466 10.105244727790357 0.19253759092399184 C 10.093017749786235 0.18970857481401374 10.08097591681549 0.18609454376252288 10.068734127208698 0.1833321798645594 C 10.063971616840092 0.18240935395696267 10.05910459737582 0.18214768624382946 10.0542705972014 0.18255457072438183 C 10.052900523954422 0.18263603453906677 10.05092317499797 0.18515400699297485 10.05056769653389 0.1868277180946896 C 10.050250784153034 0.18879646367733424 10.050910971349102 0.19079636129220165 10.052337683052961 0.19218951826124553 C 10.056636162895671 0.19443183937568417 10.061178729440512 0.19617133422327115 10.065875487893381 0.19737357919576126 C 10.152528403904752 0.21924740750115293 10.23700956524949 0.24896615528913024 10.318272603192263 0.28616173140133994 C 10.427358831425142 0.3349347504229113 10.532384641954017 0.39232376558905524 10.632352637810541 0.4577837715391368 C 10.68525760853984 0.4918967074842606 10.734085633801579 0.5319510440177315 10.777884039845057 0.577165289059691 C 10.780779708167051 0.5801942618057152 10.783601318475696 0.5832972925650893 10.786282218558974 0.5865114103444895 C 10.787095330054854 0.5878466736809677 10.787734915079941 0.5892801405076219 10.788185509502075 0.5907771519134621 C 10.782323555827448 0.5984762722755373 10.77508099679051 0.6050181815304689 10.76682717845187 0.6100692643911932 Z" fill="#212121" transform="matrix(1,0,0,1,0,0)" fill-rule="nonzero"></path></g></g></g><defs><clipPath id="SvgjsClipPath1002"><path d=" M 9.240972900390625 -0.02452644620550115 h 1.564090430353963 v 1.0540528924110022 h -1.564090430353963 Z"></path></clipPath><clipPath id="SvgjsClipPath100013b3cd5f-636f-4443-bb6d-66d8a1033b8a"><path d=" M 9.240972900390625 -0.02452644620550115 L 10.805063330744588 -0.02452644620550115 L 10.805063330744588 1.0295264462055012 L 9.240972900390625 1.0295264462055012 Z"></path></clipPath></defs></svg>